<svg width="51" height="52" viewBox="0 0 51 52" fill="none" xmlns="http://www.w3.org/2000/svg">
<path d="M39.9863 0H5.195C3.27933 0 1.72641 1.55292 1.72641 3.46869V9.75475C1.72641 11.6704 3.27943 13.2234 5.1951 13.2234H8.54902L9.12236 13.7936H13.1856L13.8712 13.2234H39.9863C41.902 13.2234 43.4549 11.6704 43.4549 9.75475V3.46869C43.4549 1.55292 41.902 0 39.9863 0V0Z" fill="#95D6A4"/>
<path d="M7.9636 13.2233C8.41151 13.2233 8.75033 13.6286 8.67096 14.0694L7.88862 18.4133C7.81952 18.7968 8.28059 19.0455 8.56317 18.7772L14.206 13.4207C14.3395 13.294 14.5167 13.2233 14.7009 13.2233H7.9636Z" fill="#78C2A4"/>
<path d="M45.8051 0H39.3131C41.2288 0 42.7818 1.55292 42.7818 3.46869V9.75475C42.7818 11.6704 41.2289 13.2234 39.3132 13.2234H36.2992C36.4834 13.2234 36.6605 13.2941 36.7941 13.4209L42.4369 18.7774C42.7195 19.0456 43.1804 18.7969 43.1114 18.4135L42.3291 14.0696C42.2497 13.6288 42.5885 13.2234 43.0365 13.2234H45.8051C47.7207 13.2234 49.2738 11.6704 49.2738 9.75475V3.46869C49.2737 1.55292 47.7207 0 45.8051 0V0Z" fill="#78C2A4"/>
<path d="M5.73316 49.7046C5.27279 47.1428 7.16472 44.7582 9.76412 44.6242C12.0641 44.5055 13.867 42.6041 13.8633 40.3011L13.8432 27.9552C13.8432 27.4339 13.802 26.825 13.7088 26.2113C13.5701 25.3017 13.387 24.7415 13.2507 24.3071H8.38231C4.8503 24.3071 1.98697 27.1705 1.98697 30.7025V50.0065H5.7874L5.73316 49.7046Z" fill="#D5985C"/>
<path d="M21.101 36.4269L19.7772 33.6479C19.6986 33.4829 19.6567 33.303 19.6545 33.1203L19.6293 31.0873C19.6293 28.5323 18.7441 26.1701 17.2629 24.3071H12.3333C12.357 24.4871 12.3984 24.6664 12.4594 24.8424C12.8472 25.961 13.0581 27.1608 13.0581 28.4067L13.0772 40.0762C13.0808 42.2531 11.3766 44.0503 9.20257 44.1625C6.74557 44.2893 4.95723 46.5432 5.39237 48.9647L5.57963 50.0065H11.6061L11.1435 47.082C10.9868 46.092 11.7524 45.1963 12.7548 45.197L16.5307 45.1996C17.713 45.2014 18.6725 44.2435 18.6726 43.0612L18.6729 39.5216C18.673 38.818 19.2376 38.2229 19.9412 38.2334C20.879 38.2475 21.5037 37.2722 21.101 36.4269Z" fill="#C38959"/>
<path d="M6.91278 39.3007V37.7373C6.91278 36.9043 7.29837 36.1181 7.95697 35.6081L10.6417 33.5293C11.6436 32.7535 12.2301 31.5577 12.2301 30.2904C12.2301 28.9789 12.8473 27.8123 13.8061 27.0625C13.7841 26.786 13.7523 26.5005 13.7088 26.2134C13.4874 24.7621 13.1529 24.1999 13.0763 23.6201H13.0769C13.0345 23.2972 13.0481 22.972 13.1135 22.6566L12.7936 22.3895H8.89286C3.25234 22.3895 -0.962093 27.575 0.19098 33.0964L1.9869 41.6963H4.51719C5.84028 41.6963 6.91278 40.6238 6.91278 39.3007Z" fill="#6B61B1"/>
<path d="M19.7356 22.3877H12.7936C12.3077 23.1107 12.1713 24.0119 12.4593 24.8426C12.788 25.7906 12.988 26.7974 13.0418 27.8408C13.7887 26.8402 14.9818 26.1924 16.3264 26.1924H16.8425C18.692 26.1924 20.1913 24.693 20.1913 22.8436C20.1915 22.5918 19.9874 22.3877 19.7356 22.3877Z" fill="#5E54AC"/>
<path d="M5.81495 47.7533L1.43469 47.3317C0.746779 47.2655 0.151398 47.8063 0.151398 48.4974V49.8812C0.151398 50.5279 0.675685 51.0523 1.32252 51.0523H6.91079L7.23485 50.562V49.6297C7.23485 48.7388 6.63638 47.9862 5.81495 47.7533Z" fill="#E28086"/>
<path d="M12.344 48.3815L5.24295 47.698C6.18962 47.8369 6.91094 48.6508 6.91094 49.6294V51.052H12.2318C12.8785 51.052 13.4029 50.5277 13.4029 49.8809V49.5472C13.4028 48.9439 12.9444 48.4394 12.344 48.3815Z" fill="#DD636E"/>
<path d="M39.3938 50.0067H43.2191V43.4615C43.2191 42.2866 43.3402 41.1148 43.5804 39.9647L44.3517 36.271L45.0151 33.0946C45.7132 29.7496 44.4417 26.3802 41.8336 24.3074H33.7372C32.2559 26.1704 31.3708 28.5326 31.3708 31.0876L31.3456 33.1206C31.3433 33.3033 31.3014 33.4833 31.2229 33.6482L29.8991 36.4273C29.4964 37.2726 30.1211 38.2478 31.059 38.2337C31.7626 38.223 32.3271 38.8182 32.3271 39.5219L32.3274 43.0614C32.3275 44.2437 33.287 45.2017 34.4694 45.1999L38.2453 45.1973C39.2477 45.1966 40.0132 46.0922 39.8566 47.0822L39.3938 50.0067Z" fill="#FFDDCE"/>
<path d="M42.6178 24.3074H41.1357C43.656 26.3105 45.0393 29.6366 44.3172 33.0946L42.8824 39.9647C42.6422 41.1148 42.5212 42.2866 42.5212 43.4615V50.0067H49.0131V30.7027C49.0131 27.1707 46.1499 24.3074 42.6178 24.3074Z" fill="#FFCBBE"/>
<path d="M44.0816 37.5653L44.3518 36.2713L45.0152 33.0948C45.7132 29.7498 44.4417 26.3804 41.8336 24.3076C40.3298 23.1123 38.4212 22.3879 36.3132 22.3879H31.2644C31.0127 22.3879 30.8086 22.5921 30.8086 22.8438C30.8086 24.6934 32.3079 26.1927 34.1574 26.1927H34.6736C36.9359 26.1927 38.7699 28.0266 38.7699 30.2889C38.7699 31.5562 39.3564 32.7519 40.3583 33.5278L43.0431 35.6066C43.6567 36.0815 44.0328 36.7963 44.0816 37.5653Z" fill="#E49542"/>
<path d="M42.1072 22.3877H35.6153C41.2558 22.3877 45.4702 27.5731 44.3171 33.0946L43.6538 36.271C43.9331 36.702 44.0873 37.2093 44.0873 37.7355V39.299C44.0873 40.622 45.1598 41.6945 46.4828 41.6945H49.0131L50.809 33.0946C51.9622 27.5731 47.7477 22.3877 42.1072 22.3877Z" fill="#E27D47"/>
<path d="M42.7794 47.9847L38.6563 48.3816C38.0557 48.4394 37.5974 48.944 37.5974 49.5473V49.8811C37.5974 50.5278 38.1217 51.0522 38.7685 51.0522H44.3567L44.4398 50.7874V49.7497C44.4397 48.7998 43.6957 48.041 42.7794 47.9847Z" fill="#B1E4F9"/>
<path d="M49.5654 47.3317L42.4858 48.0132C43.4943 47.9459 44.3567 48.7442 44.3567 49.7622V51.0523H49.6776C50.3243 51.0523 50.8487 50.528 50.8487 49.8812V48.4973C50.8487 47.8063 50.2533 47.2655 49.5654 47.3317Z" fill="#90D8F9"/>
<path d="M43.3897 5.23533H7.61117C7.18569 5.23533 6.84079 4.89043 6.84079 4.46496C6.84079 4.03948 7.18569 3.69458 7.61117 3.69458H43.3898C43.8154 3.69458 44.1602 4.03948 44.1602 4.46496C44.1602 4.89043 43.8153 5.23533 43.3897 5.23533Z" fill="#F0F7FF"/>
<path d="M25.4999 9.11082H7.61065C7.18518 9.11082 6.84027 8.76592 6.84027 8.34045C6.84027 7.91487 7.18518 7.57007 7.61065 7.57007H25.4999C25.9255 7.57007 26.2703 7.91497 26.2703 8.34045C26.2703 8.76592 25.9255 9.11082 25.4999 9.11082Z" fill="#F0F7FF"/>
</svg>
