<svg width="45" height="49" viewBox="0 0 45 49" fill="none" xmlns="http://www.w3.org/2000/svg">
<path d="M22.0083 32.4608C22.0083 32.1574 22.2542 31.9117 22.5576 31.9117H23.7217C23.292 31.9117 22.9435 31.5633 22.9435 31.1334V24.2076H21.9087C21.921 24.3312 21.8818 24.4589 21.7872 24.5536L20.7733 25.5675C20.6058 25.735 20.334 25.735 20.1666 25.5675L18.2609 23.6619L20.3465 34.145H23.6925C22.7622 34.145 22.0083 33.391 22.0083 32.4608Z" fill="#DAE6F1"/>
<path d="M16.8935 29.3163C16.8623 29.2369 16.8718 29.1471 16.9193 29.0761L17.469 28.2513C17.5471 28.134 17.5182 27.9759 17.4036 27.8942L16.3835 27.1657C16.3123 27.1148 16.2712 27.0315 16.2744 26.944L16.3968 23.5201C16.3087 23.5446 16.2209 23.5701 16.1322 23.5923L12.898 24.4064C11.9556 24.6437 11.2768 25.4662 11.2229 26.4364L10.7757 34.1451H18.7895L16.8935 29.3163Z" fill="#3A70BF"/>
<path d="M18.2609 23.6617L17.9009 23.3016C17.8266 23.2274 17.7872 23.1326 17.7788 23.0358C17.3297 23.2279 16.8677 23.3887 16.397 23.5198L16.2747 26.9437C16.2716 27.0312 16.3126 27.1144 16.3838 27.1654L17.4038 27.8938C17.5184 27.9758 17.5473 28.1339 17.4692 28.251L16.9195 29.0758C16.8721 29.1468 16.8625 29.2366 16.8937 29.316L18.7898 34.1448H20.3465L18.2609 23.6617Z" fill="#5290DB"/>
<path d="M21.9087 24.2076C21.9209 24.3313 21.8817 24.459 21.7872 24.5537L20.9375 25.4034L20.9589 25.4571L21.7246 26.6056H22.9432V24.2076H21.9087Z" fill="#FC657E"/>
<path d="M22.0083 32.4607C22.0083 32.1573 22.2542 31.9115 22.5576 31.9115H23.7217C23.292 31.9115 22.9435 31.5632 22.9435 31.1333V26.6053H21.7246L20.3465 34.1448H23.6925C22.7622 34.1448 22.0083 33.3909 22.0083 32.4607Z" fill="#FC657E"/>
<path d="M22.8133 26.1269H21.9805L21.3569 25.1915C21.2105 24.9718 20.913 24.9124 20.6933 25.0588C20.4735 25.2055 20.414 25.5025 20.5606 25.7224L21.3263 26.8709C21.4151 27.0039 21.5644 27.0839 21.7244 27.0839H22.8131C23.0774 27.0839 23.2916 26.8697 23.2916 26.6054C23.2916 26.3411 23.0776 26.1269 22.8133 26.1269Z" fill="#222222"/>
<path d="M21.805 26.1662C21.5464 26.1183 21.2959 26.2908 21.2484 26.5509L19.9007 33.9235C19.8531 34.1832 20.0253 34.4326 20.2854 34.4801C20.3143 34.4855 20.3434 34.4879 20.372 34.4879C20.5986 34.4879 20.7997 34.3262 20.8421 34.0954L22.1897 26.7228C22.2374 26.463 22.0649 26.2136 21.805 26.1662Z" fill="#222222"/>
<path d="M43.1994 34.145H1.78104C1.06173 34.145 0.478516 34.7282 0.478516 35.4475C0.478516 36.1668 1.06173 36.7501 1.78104 36.7501H43.1996C43.9189 36.7501 44.5021 36.1668 44.5021 35.4475C44.502 34.7282 43.9187 34.145 43.1994 34.145Z" fill="#AD7753"/>
<path d="M1.91927 36.7501C1.97343 37.8645 2.89907 38.7599 4.02607 38.7599H40.9543C42.0815 38.7599 43.0069 37.8645 43.0611 36.7501H1.91927Z" fill="#8E6244"/>
<path d="M40.9542 38.7597H4.0262C3.94294 38.7597 3.86121 38.7533 3.78024 38.7438V47.84C3.78024 48.2163 4.08534 48.5214 4.46165 48.5214H40.5188C40.8951 48.5214 41.2002 48.2163 41.2002 47.84V38.7438C41.1194 38.7533 41.0377 38.7597 40.9542 38.7597Z" fill="#8E6244"/>
<path d="M21.7872 23.9468L19.5215 21.6812C19.354 21.5137 19.0822 21.5137 18.9147 21.6812L17.9008 22.695C17.7334 22.8625 17.7334 23.1343 17.9008 23.3018L20.1665 25.5675C20.334 25.7349 20.6058 25.7349 20.7733 25.5675L21.7872 24.5536C21.9546 24.3861 21.9546 24.1143 21.7872 23.9468Z" fill="#EDF4FC"/>
<path d="M22.4902 20.5235C21.5565 20.5235 20.6747 20.2917 19.8976 19.885V20.8009C19.8976 21.155 19.8009 21.4942 19.6277 21.7876L21.787 23.9468C21.8599 24.0198 21.8989 24.1124 21.9085 24.2075H22.9433V20.5031C22.7936 20.5151 22.6429 20.5235 22.4902 20.5235Z" fill="#F9D0B4"/>
<path d="M28.1168 9.79484C28.1136 9.63521 27.9859 9.50371 27.8263 9.49892C25.4884 9.4304 24.2565 8.5038 23.7832 8.03983C23.654 7.91312 23.4453 7.92652 23.3328 8.06816C21.2773 10.6531 18.2452 10.2883 17.2256 10.0749C17.0403 10.036 16.8625 10.1757 16.8625 10.365V14.8958C16.8625 17.991 19.3948 20.5233 22.49 20.5233C22.6426 20.5233 22.7934 20.5153 22.9431 20.5034V20.3461C22.9431 19.9162 23.2915 19.5679 23.7214 19.5679H25.6169C27.1221 18.5551 28.1176 16.8363 28.1176 14.8958V9.88288C28.1178 9.85341 28.1176 9.82412 28.1168 9.79484Z" fill="#F9D0B4"/>
<path d="M26.8939 3.82539C26.2942 3.82539 25.7336 3.99479 25.2518 4.28381C24.689 3.34458 23.6637 2.71045 22.495 2.71045H20.8443C17.6495 2.71045 15.0355 5.32448 15.0355 8.51925V11.122C15.4374 10.8002 15.9466 10.6069 16.5015 10.6069C16.6243 10.6069 16.7447 10.6173 16.8626 10.6354V10.365C16.8628 10.1757 17.0405 10.0359 17.2257 10.0748C18.2452 10.2882 21.2774 10.653 23.3329 8.0681C23.4455 7.92646 23.6541 7.91306 23.7833 8.03977C24.2567 8.50374 25.4884 9.43034 27.8264 9.49886C27.986 9.50365 28.1137 9.63514 28.1169 9.79478C28.1175 9.82406 28.1179 9.85335 28.1179 9.88282V10.6356C28.2356 10.6174 28.3562 10.6071 28.4791 10.6071C29.1124 10.6071 29.6861 10.8588 30.1087 11.2663V7.03987C30.1085 5.27185 28.6619 3.82539 26.8939 3.82539Z" fill="#754E34"/>
<path d="M28.4789 10.6069C28.356 10.6069 28.2356 10.6173 28.1177 10.6356V14.896C28.1177 15.0229 28.112 15.1484 28.1036 15.2734C28.2261 15.2931 28.3509 15.3061 28.4789 15.3061C29.7765 15.3061 30.8284 14.2542 30.8284 12.9566C30.8284 11.6589 29.7765 10.6069 28.4789 10.6069Z" fill="#F9D0B4"/>
<path d="M16.8627 14.896V10.6356C16.745 10.6175 16.6244 10.6069 16.5016 10.6069C15.204 10.6069 14.1521 11.6589 14.1521 12.9564C14.1521 14.254 15.204 15.306 16.5016 15.306C16.6296 15.306 16.7544 15.2929 16.8769 15.2732C16.8685 15.1484 16.8627 15.0229 16.8627 14.896Z" fill="#F9D0B4"/>
<path d="M24.4803 15.8643C24.278 15.6945 23.9758 15.7213 23.8064 15.9238C23.5533 16.2257 23.1204 16.4062 22.6484 16.4062C22.1764 16.4062 21.7434 16.2258 21.4904 15.9236C21.32 15.7207 21.0187 15.6947 20.8162 15.8643C20.6137 16.0341 20.5873 16.3359 20.7569 16.5384C21.1898 17.0546 21.8969 17.363 22.6484 17.363C23.4002 17.363 24.1073 17.0548 24.5398 16.5382C24.7096 16.3357 24.683 16.0341 24.4803 15.8643Z" fill="#222222"/>
<path d="M24.9839 12.536C24.5871 12.536 24.2654 12.8577 24.2654 13.2545C24.2654 13.6512 24.5871 13.9729 24.9839 13.9729C25.3806 13.9729 25.7023 13.6512 25.7023 13.2545C25.7023 12.8577 25.3806 12.536 24.9839 12.536Z" fill="#222222"/>
<path d="M20.161 12.536C19.7642 12.536 19.4425 12.8577 19.4425 13.2545C19.4425 13.6512 19.7642 13.9729 20.161 13.9729C20.5577 13.9729 20.8794 13.6512 20.8794 13.2545C20.8794 12.8577 20.5577 12.536 20.161 12.536Z" fill="#222222"/>
<path d="M14.7365 27.822C14.4722 27.822 14.258 28.0362 14.258 28.3005V33.7786C14.258 34.0429 14.4722 34.2571 14.7365 34.2571C15.0009 34.2571 15.215 34.0429 15.215 33.7786V28.3005C15.215 28.0364 15.0009 27.822 14.7365 27.822Z" fill="#222222"/>
<path d="M22.1252 23.6084L19.8597 21.3428C19.6882 21.1713 19.4605 21.0769 19.218 21.0769C18.9755 21.0769 18.7477 21.1713 18.5762 21.3428L17.5623 22.3566C17.2082 22.7106 17.2082 23.2863 17.5623 23.6402L19.828 25.9059C19.9995 26.0774 20.2272 26.1718 20.4698 26.1718C20.7123 26.1718 20.94 26.0774 21.1115 25.9059L22.1254 24.892C22.2969 24.7205 22.3915 24.4925 22.3915 24.2502C22.3913 24.0077 22.2967 23.7798 22.1252 23.6084ZM20.4698 25.1942L18.2739 22.9982L19.218 22.0542L21.4138 24.2502L20.4698 25.1942Z" fill="#222222"/>
<path d="M22.7493 23.7289H21.9851C21.7206 23.7289 21.5064 23.9432 21.5064 24.2076C21.5064 24.472 21.7206 24.6863 21.9851 24.6863H22.7493C23.0138 24.6863 23.228 24.472 23.228 24.2076C23.228 23.9432 23.0136 23.7289 22.7493 23.7289Z" fill="#222222"/>
<path d="M19.8976 19.5487C19.6332 19.5487 19.4191 19.7629 19.4191 20.0272V20.8007C19.4191 21.0346 19.3618 21.2679 19.2535 21.476C19.1314 21.7104 19.2227 21.9993 19.457 22.1214C19.5276 22.158 19.6032 22.1756 19.6775 22.1756C19.8501 22.1756 20.0168 22.0818 20.1024 21.9177C20.2815 21.5738 20.3761 21.1875 20.3761 20.8005V20.027C20.3761 19.7629 20.1619 19.5487 19.8976 19.5487Z" fill="#222222"/>
<path d="M18.1413 22.8845C18.039 22.6407 17.7584 22.5252 17.5152 22.628C17.028 22.8319 16.5235 23.0003 16.0155 23.1282L12.7813 23.9422C11.6294 24.2322 10.8112 25.2239 10.7451 26.4089L10.3057 33.987C10.2903 34.2508 10.4919 34.4772 10.7558 34.4925C10.7652 34.4931 10.7746 34.4933 10.7838 34.4933C11.0353 34.4933 11.2464 34.2969 11.2612 34.0425L11.7006 26.4632C11.7433 25.6978 12.2714 25.0577 13.0148 24.8707L16.249 24.0565C16.8033 23.917 17.3536 23.7334 17.8848 23.5108C18.1286 23.4086 18.2435 23.1282 18.1413 22.8845Z" fill="#222222"/>
<path d="M28.5954 9.78533C28.5871 9.36864 28.2556 9.03272 27.8407 9.02066C25.6328 8.95597 24.5022 8.07435 24.1186 7.69804C23.9603 7.54301 23.7423 7.46032 23.5229 7.47601C23.3022 7.4896 23.0965 7.59717 22.9588 7.77059C21.103 10.104 18.4001 9.83165 17.324 9.60656C17.0936 9.55832 16.8549 9.61574 16.6711 9.76504C16.4893 9.91261 16.3848 10.1314 16.3846 10.3689V14.8959C16.3846 18.2627 19.1238 21.0017 22.4907 21.0017C22.5904 21.0017 22.6895 20.9992 22.7881 20.9947C23.0521 20.9822 23.2559 20.7583 23.2435 20.4941C23.231 20.2302 23.0029 20.0265 22.7429 20.0388C22.6593 20.0428 22.5753 20.0447 22.4909 20.0447C19.6517 20.0447 17.3418 17.735 17.3418 14.8959V10.5841C18.5019 10.7872 21.4869 11.0061 23.5888 8.51229C24.2114 9.06832 25.4726 9.8684 27.6401 9.97061V14.8959C27.6401 16.567 26.8161 18.1435 25.4362 19.1126C25.2199 19.2645 25.1677 19.5629 25.3196 19.779C25.4716 19.9955 25.7702 20.0476 25.9861 19.8956C27.6209 18.7475 28.5971 16.8783 28.5971 14.8957V9.88276L28.5954 9.78533Z" fill="#222222"/>
<path d="M26.8939 3.347C26.3824 3.347 25.8758 3.45591 25.4064 3.66492C24.7099 2.77163 23.6308 2.23206 22.495 2.23206H20.8443C17.3775 2.23206 14.557 5.05243 14.557 8.51937V11.0017C14.557 11.266 14.7711 11.4802 15.0355 11.4802C15.2998 11.4802 15.514 11.266 15.514 11.0017V8.51937C15.514 5.58033 17.905 3.18909 20.8443 3.18909H22.495C23.4466 3.18909 24.3457 3.70282 24.8412 4.52989C24.9065 4.63861 25.0123 4.71727 25.1354 4.74809C25.2583 4.7791 25.3888 4.75977 25.4979 4.69431C25.9236 4.43916 26.4062 4.30422 26.8939 4.30422C28.4025 4.30422 29.63 5.53152 29.63 7.04018V11.1558C29.63 11.4201 29.8442 11.6343 30.1085 11.6343C30.3729 11.6343 30.587 11.4201 30.587 11.1558V7.03999C30.587 5.00381 28.9302 3.347 26.8939 3.347Z" fill="#222222"/>
<path d="M28.479 10.1285C28.4003 10.1285 28.3224 10.1322 28.2453 10.1387C27.9821 10.1611 27.7867 10.3929 27.8092 10.6562C27.8316 10.9194 28.0632 11.1131 28.3268 11.0923C28.377 11.0881 28.4275 11.0856 28.479 11.0856C29.5108 11.0856 30.35 11.9249 30.35 12.9566C30.35 13.9882 29.5106 14.8276 28.479 14.8276C28.4219 14.8276 28.3658 14.8241 28.3103 14.8184C28.0481 14.7897 27.8123 14.9818 27.7849 15.2448C27.7574 15.5076 27.9484 15.7431 28.2114 15.7702C28.304 15.78 28.3915 15.7846 28.479 15.7846C30.0384 15.7846 31.307 14.516 31.307 12.9566C31.307 11.3972 30.0385 10.1285 28.479 10.1285Z" fill="#222222"/>
<path d="M16.6436 14.8209C16.5969 14.8249 16.5496 14.8276 16.5016 14.8276C15.4697 14.8276 14.6306 13.9882 14.6306 12.9566C14.6306 11.9249 15.4699 11.0856 16.5016 11.0856C16.5509 11.0856 16.5999 11.0879 16.6482 11.0917C16.9144 11.112 17.1424 10.9162 17.1633 10.6528C17.1841 10.3892 16.9877 10.1588 16.7244 10.1377C16.6507 10.132 16.5768 10.1285 16.5016 10.1285C14.9422 10.1285 13.6735 11.3972 13.6735 12.9566C13.6735 14.516 14.9422 15.7846 16.5016 15.7846C16.5783 15.7846 16.6541 15.7808 16.729 15.7741C16.9921 15.7505 17.1866 15.5182 17.1631 15.2548C17.1391 14.9916 16.9085 14.7958 16.6436 14.8209Z" fill="#222222"/>
<path d="M37.8752 19.568H23.7215C23.2918 19.568 22.9433 19.9164 22.9433 20.3462V31.1335C22.9433 31.5634 23.2916 31.9118 23.7215 31.9118H37.8752C38.3049 31.9118 38.6535 31.5634 38.6535 31.1335V20.3462C38.6535 19.9165 38.3049 19.568 37.8752 19.568Z" fill="#EDF4FC"/>
<path d="M39.0394 31.9115H22.5576C22.2542 31.9115 22.0083 32.1575 22.0083 32.4606C22.0083 33.3909 22.7622 34.1448 23.6925 34.1448H37.9044C38.8346 34.1448 39.5886 33.3909 39.5886 32.4606C39.5886 32.1575 39.3428 31.9115 39.0394 31.9115Z" fill="#DAE6F1"/>
<path d="M32.1076 25.2615H29.4892C29.2248 25.2615 29.0107 25.4757 29.0107 25.74C29.0107 26.0043 29.2248 26.2185 29.4892 26.2185H32.1076C32.372 26.2185 32.5861 26.0043 32.5861 25.74C32.5861 25.4757 32.372 25.2615 32.1076 25.2615Z" fill="#222222"/>
<path d="M37.8752 19.0894H23.7217C23.0286 19.0894 22.4649 19.653 22.4649 20.3461V31.1332C22.4649 31.8261 23.0286 32.3898 23.7217 32.3898H37.8752C38.5681 32.3898 39.1318 31.8261 39.1318 31.1332V20.3461C39.1318 19.6532 38.5681 19.0894 37.8752 19.0894ZM38.1748 31.1334C38.1748 31.2986 38.0404 31.433 37.8752 31.433H23.7217C23.5565 31.433 23.422 31.2986 23.422 31.1334V20.3463C23.422 20.1811 23.5565 20.0466 23.7217 20.0466H37.8752C38.0404 20.0466 38.1748 20.1811 38.1748 20.3463V31.1334Z" fill="#222222"/>
<path d="M39.0394 31.4332H22.5576C21.9909 31.4332 21.5298 31.8943 21.5298 32.4611C21.5298 33.6535 22.4998 34.6238 23.6925 34.6238H37.9046C39.097 34.6238 40.0673 33.6537 40.0673 32.4611C40.0671 31.8943 39.6062 31.4332 39.0394 31.4332ZM37.9044 33.6667H23.6923C23.0273 33.6667 22.4866 33.126 22.4866 32.4611C22.4866 32.422 22.5184 32.3903 22.5574 32.3903H39.0392C39.0781 32.3903 39.1099 32.422 39.1099 32.4611C39.1101 33.1258 38.5693 33.6667 37.9044 33.6667Z" fill="#222222"/>
<path d="M9.49454 24.3844C8.63322 24.2313 7.96329 23.5613 7.79103 22.7191C7.79103 22.6809 7.71447 22.6809 7.71447 22.7191C7.5422 23.5613 6.87228 24.2313 6.01095 24.3844C5.97267 24.3844 5.97267 24.4418 6.01095 24.4609C6.87228 24.6141 7.5422 25.284 7.71447 26.1262C7.71447 26.1645 7.79103 26.1645 7.79103 26.1262C7.96329 25.284 8.63322 24.6141 9.49454 24.4609C9.53282 24.442 9.53282 24.3844 9.49454 24.3844Z" fill="#F5C84C"/>
<path d="M35.6331 15.3527C35.0289 15.2454 34.5588 14.7753 34.4378 14.1844C34.4378 14.1576 34.384 14.1576 34.384 14.1844C34.2632 14.7753 33.7931 15.2454 33.1887 15.3527C33.1619 15.3527 33.1619 15.3929 33.1887 15.4065C33.7929 15.5141 34.263 15.984 34.384 16.5749C34.384 16.6017 34.4378 16.6017 34.4378 16.5749C34.5588 15.984 35.0287 15.5139 35.6331 15.4065C35.6599 15.3929 35.6599 15.3527 35.6331 15.3527Z" fill="#70D6F9"/>
<path d="M34.8845 3.18628H34.4443V2.74604C34.4443 2.42065 34.1763 2.13354 33.8318 2.13354C33.4873 2.13354 33.2193 2.40151 33.2193 2.74604V3.18628H32.779C32.4537 3.18628 32.1665 3.45425 32.1665 3.79878C32.1665 4.14331 32.4345 4.41128 32.779 4.41128H33.2193V4.85151C33.2193 5.1769 33.4873 5.46401 33.8318 5.46401C34.1763 5.46401 34.4443 5.19605 34.4443 4.85151V4.41128H34.8845C35.2099 4.41128 35.497 4.14331 35.497 3.79878C35.497 3.45444 35.229 3.18628 34.8845 3.18628Z" fill="#87D147"/>
<path d="M6.01118 28.9023C5.65157 28.9023 5.36012 29.1938 5.36012 29.5534C5.36012 29.913 5.65157 30.2045 6.01118 30.2045C6.3708 30.2045 6.66224 29.913 6.66224 29.5534C6.66224 29.1938 6.3708 28.9023 6.01118 28.9023Z" fill="#FC657E"/>
<path d="M29.5446 0C29.185 0 28.8936 0.291446 28.8936 0.651061C28.8936 1.01068 29.185 1.30212 29.5446 1.30212C29.9043 1.30212 30.1957 1.01068 30.1957 0.651061C30.1957 0.291446 29.9043 0 29.5446 0Z" fill="#F5C84C"/>
<path d="M43.1994 33.6667H1.78104C0.79893 33.6667 0 34.4657 0 35.4478C0 36.4299 0.79893 37.2288 1.78104 37.2288H43.1996C44.1817 37.2288 44.9807 36.4299 44.9807 35.4478C44.9807 34.4657 44.1815 33.6667 43.1994 33.6667ZM43.1994 36.2716H1.78104C1.32664 36.2716 0.957031 35.902 0.957031 35.4476C0.957031 34.9932 1.32664 34.6236 1.78104 34.6236H43.1996C43.654 34.6236 44.0236 34.9932 44.0236 35.4476C44.0236 35.902 43.6538 36.2716 43.1994 36.2716Z" fill="#222222"/>
<path d="M43.1039 36.409C42.8438 36.3788 42.6046 36.5681 42.5747 36.8309C42.4815 37.6578 41.7846 38.2814 40.9541 38.2814H4.02625C3.19726 38.2814 2.48428 37.6339 2.40331 36.8074C2.37728 36.5444 2.14242 36.3533 1.88039 36.3778C1.6174 36.4037 1.42503 36.6378 1.45087 36.9008C1.5818 38.2335 2.68889 39.2384 4.02625 39.2384H40.9543C42.2723 39.2384 43.3778 38.2496 43.526 36.9381C43.5555 36.6755 43.3665 36.4387 43.1039 36.409Z" fill="#222222"/>
<path d="M41.2002 38.377C40.9358 38.377 40.7217 38.5911 40.7217 38.8555V47.8399C40.7217 47.9519 40.6306 48.043 40.5186 48.043H4.46186C4.34988 48.043 4.25877 47.9519 4.25877 47.8399V38.9154C4.25877 38.651 4.04459 38.4369 3.78026 38.4369C3.51593 38.4369 3.30174 38.651 3.30174 38.9154V47.8399C3.30174 48.4796 3.82218 49 4.46186 49H40.5188C41.1585 49 41.6789 48.4796 41.6789 47.8399V38.8555C41.6787 38.5911 41.4645 38.377 41.2002 38.377Z" fill="#222222"/>
<path d="M20.7886 33.9154L18.7372 23.604C18.6853 23.3448 18.4336 23.1773 18.1744 23.228C17.9153 23.2797 17.747 23.5316 17.7985 23.7908L19.85 34.1022C19.8954 34.3298 20.0952 34.4873 20.3187 34.4873C20.3498 34.4873 20.3811 34.4843 20.4127 34.4781C20.6719 34.4267 20.8403 34.1748 20.7886 33.9154Z" fill="#222222"/>
<path d="M19.1814 33.8335L17.3804 29.2472L17.8674 28.517C18.0901 28.183 18.0086 27.7385 17.6819 27.505L16.757 26.8443L16.8713 23.6419C16.8808 23.3777 16.6743 23.1561 16.4102 23.1467C16.1533 23.1352 15.9244 23.3436 15.915 23.6078L15.7965 26.9268C15.7873 27.176 15.9033 27.411 16.1056 27.5552L16.9543 28.1613L16.521 28.8112C16.3876 29.0118 16.36 29.2658 16.4481 29.4918L18.2906 34.1838C18.3646 34.3723 18.5451 34.4875 18.7361 34.4875C18.7943 34.4875 18.8533 34.4768 18.9109 34.4542C19.1569 34.3572 19.278 34.0794 19.1814 33.8335Z" fill="#222222"/>
</svg>
