<svg width="69" height="41" viewBox="0 0 69 41" fill="none" xmlns="http://www.w3.org/2000/svg">
<path d="M50.7064 26.9858L30.5129 7.99659C30.158 7.66295 29.7294 7.41778 29.2619 7.28102C28.7944 7.14426 28.3013 7.11977 27.8225 7.20955L21.4019 8.41225L17.1743 6.91821L9.52801 21.3634C9.52801 21.3634 15.7763 29.3416 17.9613 31.2945C20.1464 33.2475 32.0587 38.0593 35.965 39.0748C39.8714 40.0902 40.127 36.4778 40.127 36.4778C43.3285 37.0242 44.0547 33.8728 44.0547 33.8728C48.8986 34.2634 48.039 30.9824 48.039 30.9824C49.7262 31.3794 50.6285 30.8799 51.1087 30.1719C51.4294 29.679 51.5649 29.0885 51.4912 28.5052C51.4176 27.9218 51.1395 27.3835 50.7064 26.9858Z" fill="#DDB087"/>
<path d="M50.4594 8.56046L48.0375 9.26319L37.9393 8.10905C37.385 8.04551 36.824 8.0749 36.2794 8.19602L29.8934 9.61536C28.6337 9.89504 27.53 10.649 26.8114 11.7209C25.9758 12.9663 24.8809 14.6609 24.2235 15.925C24.1542 16.0572 24.1161 16.2035 24.1122 16.3528C24.1082 16.502 24.1386 16.6501 24.2009 16.7858C24.2632 16.9214 24.3558 17.041 24.4716 17.1352C24.5873 17.2295 24.7232 17.2959 24.8686 17.3294C26.5761 17.7195 29.8182 18.0076 31.7113 15.2788L36.0083 14.8103L50.8761 27.1613L57.8832 22.9353L59.7582 20.826L50.4594 8.56046Z" fill="#F0C191"/>
<path d="M33.6962 34.6092C33.2611 34.3689 32.7484 34.3113 32.2708 34.449C31.7932 34.5867 31.3899 34.9084 31.1494 35.3434L29.9222 37.5695C29.8031 37.785 29.7276 38.0218 29.7 38.2665C29.6724 38.5111 29.6932 38.7588 29.7613 38.9954C29.8295 39.232 29.9435 39.4529 30.097 39.6454C30.2505 39.8379 30.4404 39.9983 30.6559 40.1174C30.8713 40.2365 31.1082 40.3121 31.3528 40.3396C31.5975 40.3672 31.8452 40.3464 32.0818 40.2783C32.3183 40.2101 32.5392 40.0961 32.7317 39.9426C32.9242 39.7891 33.0846 39.5992 33.2037 39.3837L34.431 37.1571C34.5502 36.9416 34.6257 36.7047 34.6533 36.46C34.6809 36.2152 34.66 35.9675 34.5917 35.7308C34.5235 35.4942 34.4093 35.2734 34.2556 35.0809C34.102 34.8884 33.9119 34.7282 33.6962 34.6092Z" fill="#F0C191"/>
<path d="M30.5289 31.8035C30.2697 31.6604 29.9849 31.5697 29.6907 31.5367C29.3965 31.5036 29.0987 31.5288 28.8142 31.6109C28.5298 31.6929 28.2643 31.8302 28.0329 32.0149C27.8015 32.1996 27.6087 32.428 27.4656 32.6871L25.9865 35.3647C25.6974 35.8883 25.6281 36.5053 25.7939 37.08C25.9597 37.6547 26.347 38.1399 26.8706 38.4291C27.3942 38.7182 28.0113 38.7874 28.5859 38.6216C29.1606 38.4558 29.6459 38.0685 29.935 37.5449L31.4104 34.8674C31.6996 34.3442 31.7692 33.7275 31.6039 33.153C31.4386 32.5784 31.052 32.093 30.5289 31.8035Z" fill="#F0C191"/>
<path d="M26.5819 29.6231C26.0586 29.334 25.4419 29.2647 24.8674 29.4303C24.2929 29.5959 23.8078 29.9829 23.5186 30.5062L22.0395 33.1843C21.7504 33.7079 21.6811 34.3249 21.847 34.8996C22.0128 35.4743 22.4001 35.9595 22.9237 36.2486C23.4473 36.5378 24.0643 36.607 24.639 36.4412C25.2137 36.2754 25.6989 35.8881 25.9881 35.3645L27.4672 32.687C27.6102 32.4277 27.7008 32.1427 27.7338 31.8484C27.7667 31.5541 27.7414 31.2562 27.6592 30.9717C27.577 30.6872 27.4395 30.4216 27.2547 30.1903C27.0699 29.9589 26.8413 29.7661 26.5819 29.6231Z" fill="#F0C191"/>
<path d="M22.635 27.4429C22.1117 27.1538 21.495 27.0845 20.9205 27.2501C20.346 27.4157 19.8608 27.8027 19.5717 28.326L18.0921 31.0036C17.9489 31.2628 17.8582 31.5477 17.8251 31.8421C17.792 32.1364 17.8172 32.4344 17.8993 32.7189C17.9814 33.0035 18.1187 33.2691 18.3034 33.5007C18.4882 33.7322 18.7167 33.925 18.976 34.0682C19.2352 34.2114 19.5201 34.3021 19.8145 34.3352C20.1088 34.3683 20.4068 34.343 20.6913 34.261C20.9759 34.1789 21.2415 34.0416 21.4731 33.8568C21.7046 33.6721 21.8974 33.4436 22.0406 33.1843L23.5197 30.5063C23.6628 30.247 23.7534 29.9622 23.7864 29.6679C23.8193 29.3737 23.794 29.0758 23.7119 28.7913C23.6297 28.5069 23.4923 28.2414 23.3076 28.01C23.1228 27.7787 22.8943 27.586 22.635 27.4429Z" fill="#F0C191"/>
<path d="M57.2087 1.6258L49.0852 6.76908C48.6714 7.03111 48.5483 7.57903 48.8103 7.99289L58.9033 23.9342C59.1654 24.3481 59.7133 24.4711 60.1272 24.2091L68.2507 19.0658C68.6645 18.8038 68.7876 18.2559 68.5256 17.842L58.4326 1.90071C58.1705 1.48685 57.6226 1.36377 57.2087 1.6258Z" fill="#F26176"/>
<path d="M68.5175 17.8442L65.7488 13.472C65.7343 13.4859 65.7189 13.4987 65.7039 13.5126L65.8219 13.6994C65.9472 13.8982 65.9887 14.1385 65.9372 14.3679C65.8857 14.5972 65.7454 14.7968 65.5471 14.9229L57.4254 20.0656C57.2737 20.1607 57.0969 20.2077 56.9181 20.2006C56.7393 20.1934 56.5668 20.1324 56.4233 20.0255L58.897 23.9362C59.023 24.1346 59.2226 24.275 59.4519 24.3265C59.6813 24.378 59.9217 24.3365 60.1205 24.211L68.2427 19.0688C68.441 18.9424 68.5812 18.7427 68.6327 18.5132C68.6842 18.2838 68.6428 18.0433 68.5175 17.8442Z" fill="#E95A6A"/>
<path d="M11.7724 0.712164L0.528544 15.8611C0.236637 16.2544 0.318826 16.8099 0.712117 17.1018L8.43185 22.8315C8.82514 23.1234 9.3806 23.0412 9.67251 22.6479L20.9163 7.49897C21.2082 7.10568 21.126 6.55022 20.7328 6.25831L13.013 0.528595C12.6197 0.236687 12.0643 0.318873 11.7724 0.712164Z" fill="#6BB3D9"/>
<path d="M12.6175 18.5839L12.4654 18.7888C12.3959 18.8824 12.3087 18.9614 12.2086 19.0213C12.1086 19.0811 11.9977 19.1207 11.8823 19.1376C11.767 19.1545 11.6494 19.1484 11.5364 19.1198C11.4234 19.0912 11.3171 19.0405 11.2237 18.9707L3.50381 13.2427C3.35935 13.1361 3.25074 12.9882 3.1924 12.8184C3.13407 12.6487 3.12879 12.4652 3.17725 12.2924L0.530669 15.8583C0.390642 16.0472 0.331118 16.2839 0.365115 16.5166C0.399112 16.7493 0.523864 16.959 0.712089 17.1L8.43521 22.828C8.52892 22.8974 8.6354 22.9477 8.74856 22.9759C8.86172 23.0041 8.97933 23.0098 9.09466 22.9925C9.21 22.9752 9.32079 22.9353 9.42069 22.8751C9.52059 22.8149 9.60765 22.7356 9.67686 22.6418L12.6543 18.6276C12.642 18.6132 12.6281 18.5988 12.6175 18.5839Z" fill="#4FA4D1"/>
</svg>
