<svg width="16" height="13" viewBox="0 0 16 13" fill="none" xmlns="http://www.w3.org/2000/svg">
<path d="M16 1.54004C15.41 1.80004 14.78 1.98006 14.11 2.06006C14.79 1.65006 15.3101 1.01023 15.5601 0.240234C14.9201 0.620234 14.22 0.890039 13.47 1.04004C12.88 0.400039 12.02 0 11.08 0C8.95996 0 7.4 1.97979 7.88 4.02979C5.15 3.88979 2.72999 2.5901 1.10999 0.600098C0.249985 2.0801 0.670005 4.00998 2.13 4.97998C1.59 4.96998 1.09002 4.81982 0.650024 4.56982C0.610024 6.08982 1.70003 7.52008 3.28003 7.83008C2.82003 7.96008 2.31005 7.99014 1.80005 7.89014C2.21005 9.19014 3.42999 10.1399 4.85999 10.1699C3.47999 11.2499 1.74 11.7298 0 11.5298C1.45 12.4598 3.18003 13 5.03003 13C11.13 13 14.57 7.86023 14.36 3.24023C15 2.78023 15.56 2.20004 16 1.54004Z" fill="#F9F9F9"/>
</svg>
